<svg xmlns="http://www.w3.org/2000/svg" version="1.1" xmlns:xlink="http://www.w3.org/1999/xlink" xmlns:svgjs="http://svgjs.com/svgjs" width="160" height="160"><svg xmlns:dc="http://purl.org/dc/elements/1.1/" xmlns:cc="http://creativecommons.org/ns#" xmlns:rdf="http://www.w3.org/1999/02/22-rdf-syntax-ns#" xmlns:svg="http://www.w3.org/2000/svg" xmlns="http://www.w3.org/2000/svg" xmlns:sodipodi="http://sodipodi.sourceforge.net/DTD/sodipodi-0.dtd" xmlns:inkscape="http://www.inkscape.org/namespaces/inkscape" width="160" height="160" viewBox="0 0 42.333332 42.333335" version="1.1" id="SvgjsSvg1007" inkscape:version="1.0.1 (c497b03c, 2020-09-10)" sodipodi:docname="logo.svg">
  <defs id="SvgjsDefs1006">
    <rect x="13.607143" y="32.505951" width="127" height="108.85714" id="SvgjsRect1005"></rect>
  </defs>
  <sodipodi:namedview id="SvgjsSodipodi:namedview1004" pagecolor="#ffffff" bordercolor="#666666" borderopacity="1.0" inkscape:pageopacity="0.0" inkscape:pageshadow="2" inkscape:zoom="2.3239722" inkscape:cx="64.947662" inkscape:cy="144.73752" inkscape:document-units="mm" inkscape:current-layer="text833" inkscape:document-rotation="0" showgrid="true" inkscape:snap-bbox="false" inkscape:snap-intersection-paths="true" inkscape:snap-smooth-nodes="true" inkscape:object-paths="true" inkscape:snap-global="false" fit-margin-top="0" fit-margin-left="0" fit-margin-right="0" fit-margin-bottom="0" inkscape:window-width="1680" inkscape:window-height="1022" inkscape:window-x="0" inkscape:window-y="0" inkscape:window-maximized="0" units="px"></sodipodi:namedview>
  <metadata id="SvgjsMetadata1003">
    <rdf:rdf>
      <cc:work rdf:about="">
        <dc:format>image/svg+xml</dc:format>
        <dc:type rdf:resource="http://purl.org/dc/dcmitype/StillImage"></dc:type>
        <dc:title></dc:title>
      </cc:work>
    </rdf:rdf>
  </metadata>
  <g inkscape:label="Layer 1" inkscape:groupmode="layer" id="SvgjsG1002" transform="translate(-63.499999,-45.21636)">
    <g aria-label="A" id="SvgjsG1001" style="font-style:normal;font-weight:normal;font-size:10.5833px;line-height:1.25;font-family:sans-serif;white-space:pre;shape-inside:url(#rect835);fill:#000000;fill-opacity:1;stroke:none">
      <path id="SvgjsPath1000" style="font-style:normal;font-variant:normal;font-weight:600;font-stretch:normal;font-size:50.8px;font-family:Poppins;-inkscape-font-specification:'Poppins, Semi-Bold';font-variant-ligatures:normal;font-variant-caps:normal;font-variant-numeric:normal;font-variant-east-asian:normal;stroke-width:1" d="m 80.526349,48.628554 -5.000728,13.925767 c 0.125447,-2.65e-4 0.251087,-1.64e-4 0.376722,0.0026 2.127961,0.04651 4.278312,0.469241 6.412013,1.064019 l 2.326989,-6.762959 2.918685,8.483719 c 1.643943,0.588163 3.26064,1.179605 4.82296,1.675868 1.154554,0.366736 2.275191,0.676666 3.353284,0.907955 L 88.806982,48.628554 Z M 75.876504,63.728925 C 71.148111,63.625571 66.807291,65.589279 63.499999,72.20386 74.083335,61.620535 95.250007,88.078852 105.83333,66.912193 98.557296,74.188232 86.27897,63.956303 75.876504,63.728925 Z M 72.501,70.978096 67.775708,84.137499 h 7.467761 l 2.336808,-6.756177 1.562696,-4.541843 C 76.947714,72.075847 74.833175,71.39614 72.880822,71.041141 72.752706,71.017831 72.627259,70.998823 72.501,70.978096 Z m 26.046472,4.775935 c -0.686258,0.256104 -1.385237,0.449326 -2.094445,0.57826 -1.675095,0.304528 -3.37758,0.288081 -5.087029,0.0708 l 0.336415,0.978236 2.336808,6.756177 h 7.518399 z"></path>
    </g>
  </g>
</svg><style>@media (prefers-color-scheme: light) { :root { filter: none; } }
@media (prefers-color-scheme: dark) { :root { filter: contrast(0.3846153846153846) brightness(4.5); } }
</style></svg>